<?xml version="1.0" encoding="UTF-8" standalone="no"?><svg width="800" height="224" viewBox="0 0 800 224" fill="none" xmlns="http://www.w3.org/2000/svg"><path d="M165.5 40H103V10C103 6.13401 99.866 3 96 3H76C72.134 3 69 6.13401 69 10V40H35C31.134 40 28 43.134 28 47V67C28 70.866 31.134 74 35 74H69V208C69 211.866 72.134 215 76 215H96C99.866 215 103 211.866 103 208V74H165.5C169.366 74 172.5 70.866 172.5 67V47C172.5 43.134 169.366 40 165.5 40Z" fill="#1f2937" stroke="#1f2937" stroke-width="5"/><path d="M106 172.5C150.5 154 166 113 160.5 74H103V131C103 141.5 89 149.5 81 152.5C75.5 154.6 65.8333 156 61.5 156.5" stroke="#8ed8d2" stroke-width="12" stroke-linecap="round"/><path d="M131 115.5C114.5 132 97.5 135 81 135" stroke="#8ed8d2" stroke-width="8" stroke-linecap="round"/><path d="M344.52 162H328.44L321.12 140.4H272.52L265.2 162H249.12L287.52 58.08H305.76L344.52 162ZM316.92 126.72L296.76 72.48L276.96 126.72H316.92Z" fill="#8ed8d2"/><path d="M414.56 162H398.96V147.12C393.52 158.16 383.6 163.68 369.76 163.68C362.32 163.68 356.32 161.76 351.76 157.92C347.2 154.08 344.92 148.8 344.92 142.08C344.92 128.24 354.16 120.56 372.64 118.96L398.96 116.64V115.2C398.96 105.6 393.2 100.8 381.68 100.8C372.8 100.8 364.24 103.6 356 109.2V94.08C364.88 89.52 375.12 87.24 386.72 87.24C407.28 87.24 417.56 97.52 417.56 118.08V162H414.56ZM398.96 142.8V128.4L378.16 130.32C365.28 131.68 358.84 135.96 358.84 143.16C358.84 147 360.12 150.04 362.68 152.28C365.24 154.52 368.84 155.64 373.48 155.64C379.96 155.64 385.2 153.64 389.2 149.64C393.04 145.8 394.96 141.12 394.96 135.6L398.96 142.8Z" fill="#8ed8d2"/><path d="M483.039 89.04V103.44C477.439 100.16 471.359 98.52 464.799 98.52C456.559 98.52 449.839 101.56 444.639 107.64C439.439 113.72 436.839 121.8 436.839 131.88C436.839 141.96 439.319 150 444.279 156.12C449.239 162.24 455.839 165.3 464.079 165.3C471.279 165.3 477.599 163.44 483.039 159.72V173.76C477.439 176.88 470.319 178.44 461.679 178.44C448.479 178.44 437.959 174.08 430.119 165.36C422.279 156.64 418.359 145.56 418.359 131.12C418.359 117.84 422.759 106.92 431.559 98.36C440.359 89.8 451.359 85.52 464.559 85.52C471.599 85.52 477.839 86.7 483.279 89.04H483.039Z" fill="#8ed8d2"/><path d="M501.227 58.08V162H482.747V58.08H501.227Z" fill="#8ed8d2"/><path d="M568.926 128.28H519.726C520.206 136.36 522.966 142.68 528.006 147.24C533.046 151.8 539.526 154.08 547.446 154.08C556.566 154.08 564.606 151.44 571.566 146.16V159.12C564.126 164.16 554.406 166.68 542.406 166.68C529.846 166.68 519.886 162.68 512.526 154.68C505.166 146.68 501.486 135.76 501.486 121.92C501.486 108.56 505.526 97.72 513.606 89.4C521.686 81.08 531.566 76.92 543.246 76.92C554.926 76.92 564.006 80.76 570.486 88.44C576.966 96.12 580.206 106.68 580.206 120.12C580.206 122.76 579.806 125.56 579.006 128.52L568.926 128.28ZM561.246 116.04C561.246 108.6 559.046 102.8 554.646 98.64C550.246 94.48 544.526 92.4 537.486 92.4C530.446 92.4 524.446 94.56 519.486 98.88C514.526 103.2 511.566 108.92 510.606 116.04H561.246Z" fill="#8ed8d2"/><path d="M644.055 89.04V102.24C637.415 96.24 629.655 93.24 620.775 93.24C612.055 93.24 604.735 96.32 598.815 102.48C592.895 108.64 589.935 116.4 589.935 125.76C589.935 135.12 592.895 142.8 598.815 148.8C604.735 154.8 612.055 157.8 620.775 157.8C630.175 157.8 638.175 154.76 644.775 148.68V161.64C637.975 165.48 629.695 167.4 619.935 167.4C607.375 167.4 597.055 163.12 588.975 154.56C580.895 146 576.855 135.28 576.855 122.4C576.855 109.52 580.975 98.8 589.215 90.24C597.455 81.68 607.895 77.4 620.535 77.4C630.295 77.4 638.095 81.28 644.055 89.04Z" fill="#8ed8d2"/><path d="M706.944 89.04V103.44C701.344 100.16 695.264 98.52 688.704 98.52C680.464 98.52 673.744 101.56 668.544 107.64C663.344 113.72 660.744 121.8 660.744 131.88C660.744 141.96 663.224 150 668.184 156.12C673.144 162.24 679.744 165.3 687.984 165.3C695.184 165.3 701.504 163.44 706.944 159.72V173.76C701.344 176.88 694.224 178.44 685.584 178.44C672.384 178.44 661.864 174.08 654.024 165.36C646.184 156.64 642.264 145.56 642.264 131.12C642.264 117.84 646.664 106.92 655.464 98.36C664.264 89.8 675.264 85.52 688.464 85.52C695.504 85.52 701.744 86.7 707.184 89.04H706.944Z" fill="#8ed8d2"/><path d="M762.652 77.4C774.092 77.4 783.252 81.72 790.132 90.36C797.012 99 800.452 109.88 800.452 123C800.452 136.12 797.012 147 790.132 155.64C783.252 164.28 774.092 168.6 762.652 168.6C751.212 168.6 742.052 164.28 735.172 155.64C728.292 147 724.852 136.12 724.852 123C724.852 109.88 728.292 99 735.172 90.36C742.052 81.72 751.212 77.4 762.652 77.4ZM762.652 92.52C755.292 92.52 749.452 95.4 745.132 101.16C740.812 106.92 738.652 114.2 738.652 123C738.652 131.8 740.812 139.08 745.132 144.84C749.452 150.6 755.292 153.48 762.652 153.48C770.012 153.48 775.852 150.6 780.172 144.84C784.492 139.08 786.652 131.8 786.652 123C786.652 114.2 784.492 106.92 780.172 101.16C775.852 95.4 770.012 92.52 762.652 92.52Z" fill="#8ed8d2"/><path d="M329.359 208H322.399L315.599 194.6H293.179L286.439 208H279.479L302.959 161.36H305.899L329.359 208ZM313.879 189.2L304.379 168.4L294.899 189.2H313.879Z" fill="#1f2937"/><path d="M350.055 173.2C355.655 173.2 360.095 174.98 363.375 178.54C366.655 182.1 368.295 186.94 368.295 193.06C368.295 199.18 366.655 204.02 363.375 207.58C360.095 211.14 355.655 212.92 350.055 212.92C344.455 212.92 340.015 211.14 336.735 207.58C333.455 204.02 331.815 199.18 331.815 193.06C331.815 186.94 333.455 182.1 336.735 178.54C340.015 174.98 344.455 173.2 350.055 173.2ZM350.055 179.24C346.295 179.24 343.295 180.5 341.055 183.02C338.815 185.54 337.695 188.9 337.695 193.1C337.695 197.3 338.815 200.64 341.055 203.14C343.295 205.64 346.295 206.89 350.055 206.89C353.815 206.89 356.815 205.64 359.055 203.14C361.295 200.64 362.415 197.28 362.415 193.1C362.415 188.92 361.295 185.56 359.055 183.04C356.815 180.52 353.815 179.26 350.055 179.26V179.24Z" fill="#1f2937"/><path d="M407.109 192.04C407.109 197.16 405.609 201.18 402.609 204.1C399.609 207.02 395.389 208.48 389.949 208.48C387.029 208.48 384.309 208.06 381.789 207.22V175.38C384.309 174.54 387.029 174.12 389.949 174.12C395.389 174.12 399.609 175.58 402.609 178.5C405.609 181.42 407.109 185.92 407.109 191.56V192.04ZM401.229 191.56C401.229 185.12 397.469 181.9 389.949 181.9C388.229 181.9 386.629 182.04 385.149 182.32V200.28C386.629 200.56 388.229 200.7 389.949 200.7C397.469 200.7 401.229 197.72 401.229 191.76V191.56Z" fill="#1f2937"/><path d="M449.695 208H443.495V175.26L431.815 206.14H428.435L416.875 175.26V208H410.675V174.12H419.795L430.235 202.3L440.675 174.12H449.795V208H449.695Z" fill="#1f2937"/><path d="M483.125 195.02H464.225C464.385 197.92 465.205 200.18 466.685 201.8C468.165 203.42 470.165 204.22 472.685 204.22C475.645 204.22 478.285 203.3 480.605 201.46V206.82C478.085 208.42 474.825 209.22 470.825 209.22C466.305 209.22 462.725 207.9 460.085 205.26C457.445 202.62 456.125 199.02 456.125 194.46C456.125 190.06 457.565 186.5 460.445 183.78C463.325 181.06 466.805 179.7 470.885 179.7C474.965 179.7 478.185 180.94 480.545 183.42C482.905 185.9 484.085 189.24 484.085 193.44C484.085 194.32 483.765 194.94 483.125 195.28V195.02ZM476.105 190.62C476.105 188.1 475.385 186.12 473.945 184.68C472.505 183.24 470.565 182.52 468.125 182.52C465.685 182.52 463.665 183.26 462.065 184.74C460.465 186.22 459.465 188.18 459.065 190.64H476.105V190.62Z" fill="#1f2937"/><path d="M516.854 174.12V179.98C514.454 178.94 512.054 178.42 509.654 178.42C506.134 178.42 503.294 179.56 501.134 181.84C498.974 184.12 497.894 187.2 497.894 191.08C497.894 194.96 498.914 198.02 500.954 200.26C502.994 202.5 505.694 203.62 509.054 203.62C511.814 203.62 514.294 202.96 516.494 201.64V207.26C514.174 208.7 511.134 209.42 507.374 209.42C502.014 209.42 497.694 207.74 494.414 204.38C491.134 201.02 489.494 196.4 489.494 190.52C489.494 185.16 491.314 180.84 494.954 177.56C498.594 174.28 503.094 172.64 508.454 172.64C511.294 172.64 514.054 173.14 516.734 174.12H516.854Z" fill="#1f2937"/><path d="M539.406 173.98C541.486 173.98 543.346 174.28 544.986 174.88V180.84C543.266 180.08 541.566 179.7 539.886 179.7C537.526 179.7 535.666 180.54 534.306 182.22C532.946 183.9 532.126 186.36 531.966 189.6H532.326C533.366 187.48 535.146 186.42 537.666 186.42C540.426 186.42 542.606 187.34 544.206 189.18C545.806 191.02 546.606 193.52 546.606 196.68C546.606 200.4 545.566 203.34 543.486 205.5C541.406 207.66 538.606 208.74 535.086 208.74C531.246 208.74 528.126 207.32 525.726 204.48C523.326 201.64 522.126 197.8 522.126 192.96C522.126 182.68 527.726 172.64 538.926 172.64C539.086 172.64 539.246 172.72 539.406 172.76V173.98ZM534.786 202.94C536.786 202.94 538.366 202.3 539.526 201.02C540.686 199.74 541.266 197.98 541.266 195.74C541.266 193.9 540.786 192.44 539.826 191.36C538.866 190.28 537.546 189.74 535.866 189.74C534.186 189.74 532.746 190.22 531.546 191.18C530.346 192.14 529.746 193.32 529.746 194.72C529.746 196.92 530.226 198.76 531.186 200.24C532.146 201.72 533.306 202.94 534.826 202.94H534.786Z" fill="#1f2937"/><path d="M557.133 161.36V208H551.253V161.36H557.133Z" fill="#1f2937"/><path d="M596.713 208H590.833V188.9C590.833 187.46 590.913 186.04 591.073 184.64C590.433 185.76 589.613 186.82 588.613 187.82L580.573 195.76L572.533 187.82C571.533 186.82 570.713 185.78 570.073 184.66C570.233 186.06 570.313 187.48 570.313 188.92V208H564.433V174.12H565.913L586.053 193.2L605.973 174.12H607.453V208H601.573V188.9C601.573 187.46 601.653 186.04 601.813 184.64C601.173 185.76 600.353 186.82 599.353 187.82L591.313 195.76L583.273 187.82C582.273 186.82 581.453 185.78 580.813 184.66C580.973 186.06 581.053 187.48 581.053 188.92V208H596.713Z" fill="#1f2937"/><path d="M629.512 173.98C631.592 173.98 633.452 174.28 635.092 174.88V180.84C633.372 180.08 631.672 179.7 629.992 179.7C627.632 179.7 625.772 180.54 624.412 182.22C623.052 183.9 622.232 186.36 622.072 189.6H622.432C623.472 187.48 625.252 186.42 627.772 186.42C630.532 186.42 632.712 187.34 634.312 189.18C635.912 191.02 636.712 193.52 636.712 196.68C636.712 200.4 635.672 203.34 633.592 205.5C631.512 207.66 628.712 208.74 625.192 208.74C621.352 208.74 618.232 207.32 615.832 204.48C613.432 201.64 612.232 197.8 612.232 192.96C612.232 182.68 617.832 172.64 629.032 172.64C629.192 172.64 629.352 172.72 629.512 172.76V173.98ZM624.892 202.94C626.892 202.94 628.472 202.3 629.632 201.02C630.792 199.74 631.372 197.98 631.372 195.74C631.372 193.9 630.892 192.44 629.932 191.36C628.972 190.28 627.652 189.74 625.972 189.74C624.292 189.74 622.852 190.22 621.652 191.18C620.452 192.14 619.852 193.32 619.852 194.72C619.852 196.92 620.332 198.76 621.292 200.24C622.252 201.72 623.412 202.94 624.932 202.94H624.892Z" fill="#1f2937"/><path d="M670.94 195.02H652.04C652.2 197.92 653.02 200.18 654.5 201.8C655.98 203.42 657.98 204.22 660.5 204.22C663.46 204.22 666.1 203.3 668.42 201.46V206.82C665.9 208.42 662.64 209.22 658.64 209.22C654.12 209.22 650.54 207.9 647.9 205.26C645.26 202.62 643.94 199.02 643.94 194.46C643.94 190.06 645.38 186.5 648.26 183.78C651.14 181.06 654.62 179.7 658.7 179.7C662.78 179.7 666 180.94 668.36 183.42C670.72 185.9 671.9 189.24 671.9 193.44C671.9 194.32 671.58 194.94 670.94 195.28V195.02ZM663.92 190.62C663.92 188.1 663.2 186.12 661.76 184.68C660.32 183.24 658.38 182.52 655.94 182.52C653.5 182.52 651.48 183.26 649.88 184.74C648.28 186.22 647.28 188.18 646.88 190.64H663.92V190.62Z" fill="#1f2937"/><path d="M693.232 184.62V208H687.352V184.62H681.052V179.98H687.352V178.2C687.352 175.16 688.152 172.78 689.752 171.06C691.352 169.34 693.752 168.48 696.952 168.48C698.592 168.48 700.212 168.74 701.812 169.26V174.8C700.492 174.2 699.172 173.9 697.852 173.9C696.532 173.9 695.472 174.3 694.672 175.1C693.872 175.9 693.472 177.08 693.472 178.64V179.98H701.152V184.62H693.232Z" fill="#1f2937"/><path d="M722.469 173.2C726.829 173.2 730.389 174.9 733.149 178.3C735.909 181.7 737.289 186.28 737.289 192.04C737.289 197.8 735.909 202.38 733.149 205.78C730.389 209.18 726.829 210.88 722.469 210.88C718.109 210.88 714.549 209.18 711.789 205.78C709.029 202.38 707.649 197.8 707.649 192.04C707.649 186.28 709.029 181.7 711.789 178.3C714.549 174.9 718.109 173.2 722.469 173.2ZM722.469 178.42C719.729 178.42 717.549 179.62 715.929 182.02C714.309 184.42 713.489 187.68 713.489 191.8C713.489 195.92 714.309 199.18 715.929 201.58C717.549 203.98 719.729 205.18 722.469 205.18C725.209 205.18 727.389 203.98 729.009 201.58C730.629 199.18 731.449 195.92 731.449 191.8C731.449 187.68 730.629 184.42 729.009 182.02C727.389 179.62 725.209 178.42 722.469 178.42Z" fill="#1f2937"/><path d="M770.106 173.2C774.466 173.2 778.026 174.9 780.786 178.3C783.546 181.7 784.926 186.28 784.926 192.04C784.926 197.8 783.546 202.38 780.786 205.78C778.026 209.18 774.466 210.88 770.106 210.88C765.746 210.88 762.186 209.18 759.426 205.78C756.666 202.38 755.286 197.8 755.286 192.04C755.286 186.28 756.666 181.7 759.426 178.3C762.186 174.9 765.746 173.2 770.106 173.2ZM770.106 178.42C767.366 178.42 765.186 179.62 763.566 182.02C761.946 184.42 761.126 187.68 761.126 191.8C761.126 195.92 761.946 199.18 763.566 201.58C765.186 203.98 767.366 205.18 770.106 205.18C772.846 205.18 775.026 203.98 776.646 201.58C778.266 199.18 779.086 195.92 779.086 191.8C779.086 187.68 778.266 184.42 776.646 182.02C775.026 179.62 772.846 178.42 770.106 178.42Z" fill="#1f2937"/><path d="M800.251 173.2C800.251 173.2 800.251 173.2 800.251 173.2V178.9C798.471 178.02 796.711 177.58 794.971 177.58C792.371 177.58 790.211 178.6 788.491 180.64C786.771 182.68 785.911 185.36 785.911 188.68V208H780.031V174.12H785.911V179.78C787.431 175.38 790.631 173.2 795.511 173.2H800.251Z" fill="#1f2937"/></svg>