<svg width="180" height="50" viewBox="0 0 180 50" fill="none" xmlns="http://www.w3.org/2000/svg">
  <defs>
    <linearGradient id="logoGradient" x1="0%" y1="0%" x2="100%" y2="100%">
      <stop offset="0%" stop-color="#4361ee" />
      <stop offset="100%" stop-color="#4895ef" />
    </linearGradient>
    <filter id="glow" x="-20%" y="-20%" width="140%" height="140%">
      <feGaussianBlur stdDeviation="2" result="blur" />
      <feComposite in="SourceGraphic" in2="blur" operator="over" />
    </filter>
  </defs>
  
  <!-- Medical Cross Symbol -->
  <g filter="url(#glow)">
    <path d="M25 10C16.7157 10 10 16.7157 10 25C10 33.2843 16.7157 40 25 40C33.2843 40 40 33.2843 40 25C40 16.7157 33.2843 10 25 10ZM25 36C18.9249 36 14 31.0751 14 25C14 18.9249 18.9249 14 25 14C31.0751 14 36 18.9249 36 25C36 31.0751 31.0751 36 25 36Z" fill="url(#logoGradient)"/>
    <rect x="23" y="17" width="4" height="16" rx="2" fill="url(#logoGradient)"/>
    <rect x="17" y="23" width="16" height="4" rx="2" fill="url(#logoGradient)"/>
  </g>
  
  <!-- Antidote Text -->
  <text x="50" y="32" fill="url(#logoGradient)" font-family="'Arial', sans-serif" font-weight="700" font-size="24" letter-spacing="-0.03em">ANTIDOTE</text>
  
  <!-- Tagline -->
  <text x="51" y="44" fill="#6c757d" font-family="'Arial', sans-serif" font-weight="400" font-size="10">HEALTHCARE REIMAGINED</text>
</svg>