<svg width="1440" height="320" viewBox="0 0 1440 320" fill="none" xmlns="http://www.w3.org/2000/svg">
  <defs>
    <linearGradient id="waveGradient" x1="0%" y1="0%" x2="100%" y2="0%">
      <stop offset="0%" stop-color="#4361ee" stop-opacity="0.05" />
      <stop offset="50%" stop-color="#4895ef" stop-opacity="0.1" />
      <stop offset="100%" stop-color="#4361ee" stop-opacity="0.05" />
    </linearGradient>
  </defs>
  <path fill="url(#waveGradient)" fill-opacity="1" d="M0,192L48,170.7C96,149,192,107,288,122.7C384,139,480,213,576,234.7C672,256,768,224,864,197.3C960,171,1056,149,1152,133.3C1248,117,1344,107,1392,101.3L1440,96L1440,320L1392,320C1344,320,1248,320,1152,320C1056,320,960,320,864,320C768,320,672,320,576,320C480,320,384,320,288,320C192,320,96,320,48,320L0,320Z"></path>
</svg>