<svg width="200" height="200" viewBox="0 0 200 200" xmlns="http://www.w3.org/2000/svg">
  <defs>
    <linearGradient id="skinGradient" x1="0%" y1="0%" x2="100%" y2="100%">
      <stop offset="0%" style="stop-color:#f4d1ae;stop-opacity:1" />
      <stop offset="100%" style="stop-color:#e8c4a0;stop-opacity:1" />
    </linearGradient>
    <linearGradient id="medicalGradient" x1="0%" y1="0%" x2="100%" y2="100%">
      <stop offset="0%" style="stop-color:#8ed8d2;stop-opacity:1" />
      <stop offset="100%" style="stop-color:#5baba3;stop-opacity:1" />
    </linearGradient>
    <linearGradient id="syringeGradient" x1="0%" y1="0%" x2="100%" y2="100%">
      <stop offset="0%" style="stop-color:#c8e6e3;stop-opacity:1" />
      <stop offset="100%" style="stop-color:#8ed8d2;stop-opacity:1" />
    </linearGradient>
  </defs>
  
  <!-- Background circle -->
  <circle cx="100" cy="100" r="95" fill="url(#medicalGradient)" opacity="0.1"/>
  
  <!-- Face silhouette -->
  <ellipse cx="100" cy="95" rx="35" ry="45" fill="url(#skinGradient)" stroke="#d4b08a" stroke-width="2"/>
  
  <!-- Facial features -->
  <ellipse cx="90" cy="85" rx="3" ry="2" fill="#d4b08a"/>
  <ellipse cx="110" cy="85" rx="3" ry="2" fill="#d4b08a"/>
  <path d="M95 95 Q100 100 105 95" stroke="#d4b08a" stroke-width="1.5" fill="none"/>
  <path d="M92 105 Q100 110 108 105" stroke="#d4b08a" stroke-width="1.5" fill="none"/>
  
  <!-- Syringe -->
  <g transform="translate(130, 80) rotate(30)">
    <rect x="0" y="-2" width="30" height="4" fill="url(#syringeGradient)" stroke="#5baba3" stroke-width="1"/>
    <rect x="25" y="-4" width="8" height="8" fill="white" stroke="#5baba3" stroke-width="1"/>
    <circle cx="35" r="1.5" fill="#5baba3"/>
    <rect x="-5" y="-1" width="5" height="2" fill="#8ed8d2"/>
  </g>
  
  <!-- Treatment points -->
  <circle cx="85" cy="100" r="2" fill="#8ed8d2" opacity="0.7"/>
  <circle cx="115" cy="100" r="2" fill="#8ed8d2" opacity="0.7"/>
  <circle cx="100" cy="110" r="2" fill="#8ed8d2" opacity="0.7"/>
  
  <!-- Medical cross -->
  <g transform="translate(100, 140)">
    <circle r="15" fill="white" opacity="0.9"/>
    <rect x="-7" y="-1.5" width="14" height="3" fill="url(#medicalGradient)"/>
    <rect x="-1.5" y="-7" width="3" height="14" fill="url(#medicalGradient)"/>
  </g>
</svg>